<?xml version="1.0" encoding="UTF-8"?>
<svg width="680" height="820" viewBox="0 0 680 820" xmlns="http://www.w3.org/2000/svg" style="font-family: system-ui, -apple-system, sans-serif; background: #ffffff;">
<defs>
  <marker id="arrow" viewBox="0 0 10 10" refX="8" refY="5" markerWidth="6" markerHeight="6" orient="auto-start-reverse">
    <path d="M2 1L8 5L2 9" fill="none" stroke="context-stroke" stroke-width="1.5" stroke-linecap="round" stroke-linejoin="round"/>
  </marker>
  <style>
    .th { font-size: 14px; font-weight: 600; fill: #1a1a1a; }
    .ts { font-size: 12px; font-weight: 400; fill: #555555; }
    .label-sm { font-size: 11px; letter-spacing: 0.06em; }
    .arr { stroke: #807d7d; stroke-width: 1; fill: none; }
  </style>
</defs>

<!-- Outer cluster border -->
<rect x="12" y="12" width="656" height="796" rx="16" fill="none" stroke="#cccccc" stroke-width="1.5" stroke-dasharray="6 4"/>
<text class="label-sm" x="30" y="32">Kubernetes Cluster (Proxmox Virtualized)</text>

<!-- ── Ingress Layer ── -->
<rect x="40" y="44" width="600" height="52" rx="10" fill="#EEEDFE" stroke="#7F77DD" stroke-width="0.5"/>
<text class="th" x="340" y="64" text-anchor="middle" dominant-baseline="central" fill="#3C3489">External Traffic</text>
<text class="ts" x="340" y="82" text-anchor="middle" dominant-baseline="central" fill="#534AB7">Ingress-NGINX / Istio Gateway</text>

<!-- Arrow -->
<line x1="340" y1="96" x2="340" y2="120" stroke="#807d7d" stroke-width="1.5" marker-end="url(#arrow)"/>

<!-- ── Service Mesh ── -->
<rect x="100" y="122" width="480" height="44" rx="8" fill="#F1EFE8" stroke="#888780" stroke-width="0.5"/>
<text class="th" x="340" y="140" text-anchor="middle" dominant-baseline="central" fill="#2C2C2A">Service Mesh</text>
<text class="ts" x="340" y="156" text-anchor="middle" dominant-baseline="central" fill="#5F5E5A">Internal Load Balancer</text>

<!-- Arrows to columns -->
<path d="M220 166 L220 194 L180 194 L180 208" fill="none" stroke="#807d7d" stroke-width="1.5" marker-end="url(#arrow)"/>
<path d="M460 166 L460 194 L500 194 L500 208" fill="none" stroke="#807d7d" stroke-width="1.5" marker-end="url(#arrow)"/>

<!-- ══ CPU Nodes ══ -->
<rect x="28" y="210" width="296" height="212" rx="12" fill="#f7f7f5" stroke="#dddddb" stroke-width="0.5"/>
<text class="label-sm" x="42" y="230">Standard Compute: CPU Nodes</text>

<rect x="44" y="242" width="120" height="56" rx="8" fill="#E1F5EE" stroke="#0F6E56" stroke-width="0.5"/>
<text class="th" x="104" y="262" text-anchor="middle" dominant-baseline="central" fill="#085041">Backend Core</text>
<text class="ts" x="104" y="280" text-anchor="middle" dominant-baseline="central" fill="#0F6E56">Spring Boot</text>

<rect x="188" y="242" width="120" height="56" rx="8" fill="#E1F5EE" stroke="#0F6E56" stroke-width="0.5"/>
<text class="th" x="248" y="262" text-anchor="middle" dominant-baseline="central" fill="#085041">Automation</text>
<text class="ts" x="248" y="280" text-anchor="middle" dominant-baseline="central" fill="#0F6E56">n8n</text>

<line x1="104" y1="298" x2="104" y2="338" stroke="#807d7d" stroke-width="1.5" marker-end="url(#arrow)"/>
<line x1="248" y1="298" x2="248" y2="338" stroke="#807d7d" stroke-width="1.5" marker-end="url(#arrow)"/>

<rect x="60" y="340" width="232" height="56" rx="8" fill="#E6F1FB" stroke="#185FA5" stroke-width="0.5"/>
<text class="th" x="176" y="360" text-anchor="middle" dominant-baseline="central" fill="#0C447C">RAG Orchestrator</text>
<text class="ts" x="176" y="378" text-anchor="middle" dominant-baseline="central" fill="#185FA5">LangChain / Python</text>

<!-- ══ GPU Nodes ══ -->
<rect x="356" y="210" width="296" height="212" rx="12" fill="#f7f7f5" stroke="#dddddb" stroke-width="0.5"/>
<text class="label-sm" x="370" y="230">AI Inference: GPU Nodes</text>

<rect x="372" y="242" width="264" height="56" rx="8" fill="#FAECE7" stroke="#993C1D" stroke-width="0.5"/>
<text class="th" x="504" y="262" text-anchor="middle" dominant-baseline="central" fill="#712B13">LLM Engine</text>
<text class="ts" x="504" y="280" text-anchor="middle" dominant-baseline="central" fill="#993C1D">vLLM / RTX PRO 5000</text>

<line x1="504" y1="298" x2="504" y2="338" stroke="#807d7d" stroke-width="1.5" marker-start="url(#arrow)"/>

<rect x="372" y="340" width="264" height="56" rx="8" fill="#FAEEDA" stroke="#854F0B" stroke-width="0.5"/>
<text class="th" x="504" y="360" text-anchor="middle" dominant-baseline="central" fill="#633806">RAG Engine</text>
<text class="ts" x="504" y="378" text-anchor="middle" dominant-baseline="central" fill="#854F0B">Retrieval / Context</text>

<!-- Bidirectional arrows -->
<line x1="293" y1="368" x2="371" y2="368" stroke="#807d7d" stroke-width="1.5" marker-end="url(#arrow)" marker-start="url(#arrow)"/>

<!-- Arrows to Data Layer -->
<line x1="176" y1="396" x2="176" y2="448" stroke="#807d7d" stroke-width="1.5"/>
<line x1="504" y1="396" x2="504" y2="448" stroke="#807d7d" stroke-width="1.5"/>
<path d="M176 448 L340 448" fill="none" stroke="#807d7d" stroke-width="1.5"/>
<path d="M504 448 L340 448" fill="none" stroke="#807d7d" stroke-width="1.5"/>
<line x1="340" y1="448" x2="340" y2="461" stroke="#807d7d" stroke-width="1.5" marker-end="url(#arrow)"/>

<!-- ══ Data Layer ══ -->
<rect x="28" y="462" width="624" height="120" rx="12" fill="#f7f7f5" stroke="#dddddb" stroke-width="0.5"/>
<text class="label-sm" x="42" y="481">Data Persistence &amp; Knowledge Base</text>

<rect x="44" y="490" width="172" height="72" rx="8" fill="#EAF3DE" stroke="#3B6D11" stroke-width="0.5"/>
<text class="th" x="130" y="518" text-anchor="middle" dominant-baseline="central" fill="#27500A">SQL Storage</text>
<text class="ts" x="130" y="538" text-anchor="middle" dominant-baseline="central" fill="#3B6D11">PostgreSQL</text>

<rect x="254" y="490" width="172" height="72" rx="8" fill="#E6F1FB" stroke="#185FA5" stroke-width="0.5"/>
<text class="th" x="340" y="518" text-anchor="middle" dominant-baseline="central" fill="#0C447C">Event Bus</text>
<text class="ts" x="340" y="538" text-anchor="middle" dominant-baseline="central" fill="#185FA5">Redis / Kafka</text>

<rect x="464" y="490" width="172" height="72" rx="8" fill="#FBEAF0" stroke="#993556" stroke-width="0.5"/>
<text class="th" x="550" y="518" text-anchor="middle" dominant-baseline="central" fill="#72243E">Vector DB</text>
<text class="ts" x="550" y="538" text-anchor="middle" dominant-baseline="central" fill="#993556">Pinecone / Milvus</text>

<!-- ── Legend ── -->
<rect x="28" y="614" width="624" height="172" rx="10" fill="none" stroke="#cccccc" stroke-width="0.5" stroke-dasharray="4 3"/>
<text class="label-sm" x="42" y="634">Legend</text>

<!-- Row 1 -->
<rect x="48"  y="648" width="12" height="12" rx="3" fill="#EEEDFE" stroke="#7F77DD" stroke-width="0.5"/>
<text class="ts" x="68"  y="659">Ingress</text>

<rect x="204" y="648" width="12" height="12" rx="3" fill="#F1EFE8" stroke="#888780" stroke-width="0.5"/>
<text class="ts" x="224" y="659">Service Mesh / LB</text>

<rect x="360" y="648" width="12" height="12" rx="3" fill="#E1F5EE" stroke="#0F6E56" stroke-width="0.5"/>
<text class="ts" x="380" y="659">Core services</text>

<rect x="516" y="648" width="12" height="12" rx="3" fill="#E6F1FB" stroke="#185FA5" stroke-width="0.5"/>
<text class="ts" x="536" y="659">Orchestration</text>

<!-- Row 2 -->
<rect x="48"  y="682" width="12" height="12" rx="3" fill="#FAECE7" stroke="#993C1D" stroke-width="0.5"/>
<text class="ts" x="68"  y="693">LLM Inference</text>

<rect x="204" y="682" width="12" height="12" rx="3" fill="#FAEEDA" stroke="#854F0B" stroke-width="0.5"/>
<text class="ts" x="224" y="693">Retrieval Engine</text>

<rect x="360" y="682" width="12" height="12" rx="3" fill="#EAF3DE" stroke="#3B6D11" stroke-width="0.5"/>
<text class="ts" x="380" y="693">SQL Storage</text>

<rect x="516" y="682" width="12" height="12" rx="3" fill="#FBEAF0" stroke="#993556" stroke-width="0.5"/>
<text class="ts" x="536" y="693">Vector DB</text>

<line x1="42" y1="710" x2="638" y2="710" stroke="#e0e0de" stroke-width="0.5"/>
<text class="ts" x="340" y="730" text-anchor="middle" fill="#999999">색상은 레이어 역할을 나타냅니다. 점선 테두리 = 클러스터 경계.</text>
<text class="ts" x="340" y="752" text-anchor="middle" fill="#999999">양방향 화살표는 RAG Orchestrator와 RAG Engine 간 양방향 통신을 의미합니다.</text>
<text class="ts" x="340" y="774" text-anchor="middle" fill="#999999">모든 GPU 워크로드는 RTX PRO 5000 노드에서 vLLM으로 서빙됩니다.</text>
</svg>
